<svg width="21" height="20" viewBox="0 0 21 20" fill="none" xmlns="http://www.w3.org/2000/svg">
<path d="M10.35 15.4375C11.55 15.4375 12.5583 15.0292 13.375 14.2125C14.1917 13.3958 14.6 12.3792 14.6 11.1625C14.6 9.9625 14.1917 8.95833 13.375 8.15C12.5583 7.34167 11.55 6.9375 10.35 6.9375C9.13333 6.9375 8.12083 7.34167 7.3125 8.15C6.50417 8.95833 6.1 9.9625 6.1 11.1625C6.1 12.3792 6.50417 13.3958 7.3125 14.2125C8.12083 15.0292 9.13333 15.4375 10.35 15.4375ZM10.35 13.9375C9.55 13.9375 8.89167 13.675 8.375 13.15C7.85833 12.625 7.6 11.9625 7.6 11.1625C7.6 10.3792 7.85833 9.72917 8.375 9.2125C8.89167 8.69583 9.55 8.4375 10.35 8.4375C11.1333 8.4375 11.7875 8.69583 12.3125 9.2125C12.8375 9.72917 13.1 10.3792 13.1 11.1625C13.1 11.9625 12.8375 12.625 12.3125 13.15C11.7875 13.675 11.1333 13.9375 10.35 13.9375ZM1.975 19.4375C1.44167 19.4375 0.979167 19.2417 0.5875 18.85C0.195833 18.4583 0 17.9958 0 17.4625V4.8875C0 4.35417 0.195833 3.8875 0.5875 3.4875C0.979167 3.0875 1.44167 2.8875 1.975 2.8875H5.45L7.425 0.5625H13.3L15.25 2.8875H18.725C19.2583 2.8875 19.725 3.0875 20.125 3.4875C20.525 3.8875 20.725 4.35417 20.725 4.8875V17.4625C20.725 17.9958 20.525 18.4583 20.125 18.85C19.725 19.2417 19.2583 19.4375 18.725 19.4375H1.975ZM18.725 17.4625V4.8875H14.35L12.375 2.5625H8.325L6.35 4.8875H1.975V17.4625H18.725Z" fill="#7E7571"/>
</svg>
