<svg width="24" height="24" viewBox="0 0 24 24" fill="none" xmlns="http://www.w3.org/2000/svg">
<path d="M4.5998 19.5251H5.5248L16.4998 8.5251L15.5498 7.6001L4.5998 18.5751V19.5251ZM19.8998 7.4751L16.6248 4.2001L17.3998 3.4501C17.7831 3.0501 18.2456 2.8501 18.7873 2.8501C19.329 2.8501 19.7915 3.03343 20.1748 3.4001L20.9248 4.1501C21.2581 4.48343 21.4123 4.8751 21.3873 5.3251C21.3623 5.7751 21.1915 6.15843 20.8748 6.4751L19.8998 7.4751ZM18.8498 8.5001L6.1748 21.1751H2.9248V17.9251L15.5748 5.2501L18.8498 8.5001ZM16.0498 8.0501L15.5498 7.6001L16.4998 8.5251L16.0498 8.0501Z" fill="black"/>
</svg>
