<svg width="243" height="193" viewBox="0 0 243 193" fill="none"
    xmlns="http://www.w3.org/2000/svg">
    <g clip-path="url(#clip0_1323_2226)">
        <path d="M204.029 164.79C204.983 164.849 205.509 163.664 204.788 162.974L204.716 162.689C204.725 162.666 204.735 162.644 204.744 162.621C205.313 161.264 206.879 160.622 208.238 161.184C212.536 162.961 207.998 167.044 208.339 169.807C208.459 170.761 212.194 170.813 211.983 171.749C213.969 167.406 215.014 162.664 215.012 157.896C215.012 156.698 214.946 155.499 214.811 154.304C214.701 153.327 214.548 152.355 214.351 151.393C213.286 146.19 210.98 141.234 207.656 137.096C206.058 136.223 207.032 134.858 206.227 133.222C205.938 132.632 203.358 132.619 203.25 131.972C203.366 131.987 205.034 130.255 204.483 129.399C204.12 128.835 204.233 128.118 204.699 127.636C204.744 127.589 204.787 127.539 204.827 127.485C206.202 125.619 208.098 125.944 209.089 128.479C211.204 129.546 211.225 131.316 209.928 133.018C209.103 134.101 208.99 135.567 208.266 136.726C208.341 136.821 208.419 136.914 208.493 137.009C209.86 138.761 211.042 140.644 212.039 142.623C211.757 140.424 212.172 137.774 212.88 136.066C213.691 134.106 215.219 132.457 216.557 130.761C218.154 128.736 221.406 129.655 221.689 132.219C221.692 132.244 221.694 132.268 221.697 132.293C221.499 132.404 221.305 132.523 221.116 132.648C220.037 133.363 220.411 135.036 221.69 135.233L221.719 135.237C221.648 135.95 219.12 138.193 218.941 138.888C220.651 145.49 219.372 146.362 214.112 146.472L213.836 146.866C214.334 148.299 214.735 149.766 215.037 151.253C215.32 152.632 215.517 154.027 215.628 155.428C215.766 157.195 215.755 158.971 215.606 160.736L215.615 160.673C215.993 158.73 217.047 156.914 218.579 155.656C220.86 153.781 224.084 153.089 226.545 151.582C227.73 150.856 229.249 151.793 229.043 153.167L229.033 153.233C228.666 153.382 228.309 153.555 227.963 153.749C227.765 153.86 227.571 153.979 227.381 154.105C226.302 154.819 226.676 156.493 227.956 156.689L227.985 156.693C228.006 156.696 228.024 156.699 228.044 156.702C227.416 158.195 221.43 160.302 220.333 161.497C219.267 167.264 219.791 167.092 214.884 165.415H214.881C214.345 167.752 213.562 170.035 212.555 172.211L204.24 172.214C204.211 172.121 204.184 172.026 204.157 171.933C204.926 171.981 205.701 171.936 206.458 171.796C205.84 171.039 205.223 170.276 204.606 169.519C204.591 169.504 204.579 169.489 204.567 169.475L204.558 169.463L203.702 166.645C203.769 166.02 203.88 165.4 204.029 164.79Z" fill="#FFEDE5"/>
        <path d="M3.45382e-08 172.451C0.000106162 172.756 0.244757 173 0.549311 173L241.546 172.917C241.851 172.916 242.095 172.672 242.095 172.367C242.095 172.063 241.85 171.818 241.546 171.818L0.548932 171.902C0.244379 171.902 -0.000106093 172.146 3.45382e-08 172.451Z" fill="#CCCCCC"/>
        <path d="M141.447 171.353L67.87 171.379C64.1737 171.38 60.8626 169.47 59.0133 166.269C58.0886 164.669 57.6261 162.913 57.6255 161.157C57.6249 159.402 58.0864 157.645 59.0098 156.044L95.775 89.1154C97.6223 85.9135 100.932 84.0013 104.628 84C108.325 83.9987 111.636 85.9086 113.485 89.1093L150.302 156.021C151.224 157.617 151.685 159.371 151.685 161.126C151.685 162.881 151.224 164.637 150.3 166.238C148.453 169.44 145.144 171.352 141.447 171.353ZM58.5504 161.156C58.5502 162.754 66.6692 159.31 67.5104 160.766C69.1928 163.678 64.5068 170.457 67.8697 170.456C67.8697 170.456 147.821 168.69 149.501 165.777C150.341 164.32 150.761 162.723 150.76 161.125C150.76 159.528 150.339 157.93 149.498 156.475L112.681 89.5627C111.004 86.6593 107.992 84.9217 104.629 84.9228C101.267 84.924 58.5505 159.558 58.5504 161.156Z" fill="#3F3D56"/>
        <path d="M142.264 170.43C141.342 172.276 184.537 171.709 185.047 171.708C185.047 171.708 197.188 171.44 197.444 170.998C197.571 170.777 197.635 170.534 197.635 170.291C197.635 170.049 197.571 169.806 197.443 169.585L191.852 159.424C191.598 158.983 191.14 158.72 190.63 158.72C190.608 158.72 190.577 158.739 190.536 158.775C183.078 165.44 173.887 169.845 163.886 169.994C153.252 170.152 142.323 170.312 142.264 170.43Z" fill="#3F3D56"/>
        <path d="M126.097 156.593C144.701 156.593 159.781 141.513 159.781 122.909C159.781 104.306 144.701 89.2256 126.097 89.2256C107.494 89.2256 92.4136 104.306 92.4136 122.909C92.4136 141.513 107.494 156.593 126.097 156.593Z" fill="#E30202"/>
        <path d="M126.104 143.559C127.812 143.559 129.197 142.174 129.197 140.466C129.197 138.758 127.812 137.373 126.104 137.373C124.396 137.373 123.011 138.758 123.011 140.466C123.011 142.174 124.396 143.559 126.104 143.559Z" fill="white"/>
        <path d="M126.09 102.261C125.806 104.148 126.315 104.543 126.318 112.682C126.321 120.82 128.01 131.732 126.101 131.733C124.192 131.733 123.493 109.214 116.864 107.221C109.071 104.878 127.01 96.1495 126.09 102.261Z" fill="white"/>
        <path d="M80.8891 140.106L77.8459 146.536C81.525 143.898 87.2715 141.624 91.8444 140.406C87.5836 138.348 82.3699 135.03 79.2551 131.744L81.0055 138.539C60.4842 134.359 45.7475 118.616 45.7413 100.582L45 100.327C45.0065 119.164 59.5393 135.839 80.8891 140.106Z" fill="#3F3D56"/>
        <path d="M38.856 50L43.848 38.8H46.408L51.416 50H48.696L44.6 40.112H45.624L41.512 50H38.856ZM41.352 47.6L42.04 45.632H47.8L48.504 47.6H41.352ZM57.314 41.264C57.9967 41.264 58.6047 41.4027 59.138 41.68C59.682 41.9467 60.1087 42.3627 60.418 42.928C60.7273 43.4827 60.882 44.1973 60.882 45.072V50H58.386V45.456C58.386 44.7627 58.2313 44.2507 57.922 43.92C57.6233 43.5893 57.1967 43.424 56.642 43.424C56.2473 43.424 55.89 43.5093 55.57 43.68C55.2607 43.84 55.0153 44.0907 54.834 44.432C54.6633 44.7733 54.578 45.2107 54.578 45.744V50H52.082V41.392H54.466V43.776L54.018 43.056C54.3273 42.48 54.77 42.0373 55.346 41.728C55.922 41.4187 56.578 41.264 57.314 41.264ZM69.5957 43.312H74.9877V45.328H69.5957V43.312ZM69.7877 47.92H75.8837V50H67.2117V38.8H75.6757V40.88H69.7877V47.92ZM77.4501 50V41.392H79.8341V43.824L79.4981 43.12C79.7541 42.512 80.1648 42.0533 80.7301 41.744C81.2955 41.424 81.9835 41.264 82.7941 41.264V43.568C82.6875 43.5573 82.5915 43.552 82.5061 43.552C82.4208 43.5413 82.3301 43.536 82.2341 43.536C81.5515 43.536 80.9968 43.7333 80.5701 44.128C80.1541 44.512 79.9461 45.1147 79.9461 45.936V50H77.4501ZM83.9739 50V41.392H86.3579V43.824L86.0219 43.12C86.2779 42.512 86.6885 42.0533 87.2539 41.744C87.8192 41.424 88.5072 41.264 89.3179 41.264V43.568C89.2112 43.5573 89.1152 43.552 89.0299 43.552C88.9445 43.5413 88.8539 43.536 88.7579 43.536C88.0752 43.536 87.5205 43.7333 87.0939 44.128C86.6779 44.512 86.4699 45.1147 86.4699 45.936V50H83.9739ZM94.5155 50.128C93.5982 50.128 92.7822 49.936 92.0675 49.552C91.3635 49.168 90.8035 48.6453 90.3875 47.984C89.9822 47.312 89.7795 46.5493 89.7795 45.696C89.7795 44.832 89.9822 44.0693 90.3875 43.408C90.8035 42.736 91.3635 42.2133 92.0675 41.84C92.7822 41.456 93.5982 41.264 94.5155 41.264C95.4222 41.264 96.2328 41.456 96.9475 41.84C97.6622 42.2133 98.2222 42.7307 98.6275 43.392C99.0328 44.0533 99.2355 44.8213 99.2355 45.696C99.2355 46.5493 99.0328 47.312 98.6275 47.984C98.2222 48.6453 97.6622 49.168 96.9475 49.552C96.2328 49.936 95.4222 50.128 94.5155 50.128ZM94.5155 48.08C94.9315 48.08 95.3048 47.984 95.6355 47.792C95.9662 47.6 96.2275 47.328 96.4195 46.976C96.6115 46.6133 96.7075 46.1867 96.7075 45.696C96.7075 45.1947 96.6115 44.768 96.4195 44.416C96.2275 44.064 95.9662 43.792 95.6355 43.6C95.3048 43.408 94.9315 43.312 94.5155 43.312C94.0995 43.312 93.7262 43.408 93.3955 43.6C93.0648 43.792 92.7982 44.064 92.5955 44.416C92.4035 44.768 92.3075 45.1947 92.3075 45.696C92.3075 46.1867 92.4035 46.6133 92.5955 46.976C92.7982 47.328 93.0648 47.6 93.3955 47.792C93.7262 47.984 94.0995 48.08 94.5155 48.08ZM100.584 50V41.392H102.968V43.824L102.632 43.12C102.888 42.512 103.299 42.0533 103.864 41.744C104.429 41.424 105.117 41.264 105.928 41.264V43.568C105.821 43.5573 105.725 43.552 105.64 43.552C105.555 43.5413 105.464 43.536 105.368 43.536C104.685 43.536 104.131 43.7333 103.704 44.128C103.288 44.512 103.08 45.1147 103.08 45.936V50H100.584ZM116.982 50.192C116.096 50.192 115.275 50.048 114.518 49.76C113.771 49.472 113.12 49.0667 112.566 48.544C112.022 48.0213 111.595 47.408 111.286 46.704C110.987 46 110.838 45.232 110.838 44.4C110.838 43.568 110.987 42.8 111.286 42.096C111.595 41.392 112.027 40.7787 112.582 40.256C113.136 39.7333 113.787 39.328 114.534 39.04C115.28 38.752 116.091 38.608 116.966 38.608C117.851 38.608 118.662 38.752 119.398 39.04C120.144 39.328 120.79 39.7333 121.334 40.256C121.888 40.7787 122.32 41.392 122.63 42.096C122.939 42.7893 123.094 43.5573 123.094 44.4C123.094 45.232 122.939 46.0053 122.63 46.72C122.32 47.424 121.888 48.0373 121.334 48.56C120.79 49.072 120.144 49.472 119.398 49.76C118.662 50.048 117.856 50.192 116.982 50.192ZM116.966 47.984C117.467 47.984 117.926 47.8987 118.342 47.728C118.768 47.5573 119.142 47.312 119.462 46.992C119.782 46.672 120.027 46.2933 120.198 45.856C120.379 45.4187 120.47 44.9333 120.47 44.4C120.47 43.8667 120.379 43.3813 120.198 42.944C120.027 42.5067 119.782 42.128 119.462 41.808C119.152 41.488 118.784 41.2427 118.358 41.072C117.931 40.9013 117.467 40.816 116.966 40.816C116.464 40.816 116 40.9013 115.574 41.072C115.158 41.2427 114.79 41.488 114.47 41.808C114.15 42.128 113.899 42.5067 113.718 42.944C113.547 43.3813 113.462 43.8667 113.462 44.4C113.462 44.9227 113.547 45.408 113.718 45.856C113.899 46.2933 114.144 46.672 114.454 46.992C114.774 47.312 115.147 47.5573 115.574 47.728C116 47.8987 116.464 47.984 116.966 47.984ZM128.706 50.128C127.778 50.128 126.951 49.9413 126.226 49.568C125.5 49.184 124.93 48.656 124.514 47.984C124.108 47.312 123.906 46.5493 123.906 45.696C123.906 44.832 124.108 44.0693 124.514 43.408C124.93 42.736 125.5 42.2133 126.226 41.84C126.951 41.456 127.778 41.264 128.706 41.264C129.612 41.264 130.402 41.456 131.074 41.84C131.746 42.2133 132.242 42.752 132.562 43.456L130.626 44.496C130.402 44.0907 130.119 43.792 129.778 43.6C129.447 43.408 129.084 43.312 128.69 43.312C128.263 43.312 127.879 43.408 127.538 43.6C127.196 43.792 126.924 44.064 126.722 44.416C126.53 44.768 126.434 45.1947 126.434 45.696C126.434 46.1973 126.53 46.624 126.722 46.976C126.924 47.328 127.196 47.6 127.538 47.792C127.879 47.984 128.263 48.08 128.69 48.08C129.084 48.08 129.447 47.9893 129.778 47.808C130.119 47.616 130.402 47.312 130.626 46.896L132.562 47.952C132.242 48.6453 131.746 49.184 131.074 49.568C130.402 49.9413 129.612 50.128 128.706 50.128ZM137.729 50.128C136.801 50.128 135.975 49.9413 135.249 49.568C134.524 49.184 133.953 48.656 133.537 47.984C133.132 47.312 132.929 46.5493 132.929 45.696C132.929 44.832 133.132 44.0693 133.537 43.408C133.953 42.736 134.524 42.2133 135.249 41.84C135.975 41.456 136.801 41.264 137.729 41.264C138.636 41.264 139.425 41.456 140.097 41.84C140.769 42.2133 141.265 42.752 141.585 43.456L139.649 44.496C139.425 44.0907 139.143 43.792 138.801 43.6C138.471 43.408 138.108 43.312 137.713 43.312C137.287 43.312 136.903 43.408 136.561 43.6C136.22 43.792 135.948 44.064 135.745 44.416C135.553 44.768 135.457 45.1947 135.457 45.696C135.457 46.1973 135.553 46.624 135.745 46.976C135.948 47.328 136.22 47.6 136.561 47.792C136.903 47.984 137.287 48.08 137.713 48.08C138.108 48.08 138.471 47.9893 138.801 47.808C139.143 47.616 139.425 47.312 139.649 46.896L141.585 47.952C141.265 48.6453 140.769 49.184 140.097 49.568C139.425 49.9413 138.636 50.128 137.729 50.128ZM146.335 50.128C145.62 50.128 144.98 49.9893 144.415 49.712C143.86 49.4347 143.428 49.0133 143.119 48.448C142.809 47.872 142.655 47.1413 142.655 46.256V41.392H145.151V45.888C145.151 46.6027 145.3 47.1307 145.599 47.472C145.908 47.8027 146.34 47.968 146.895 47.968C147.279 47.968 147.62 47.888 147.919 47.728C148.217 47.5573 148.452 47.3013 148.623 46.96C148.793 46.608 148.879 46.1707 148.879 45.648V41.392H151.375V50H149.007V47.632L149.439 48.32C149.151 48.9173 148.724 49.3707 148.159 49.68C147.604 49.9787 146.996 50.128 146.335 50.128ZM153.367 50V41.392H155.751V43.824L155.415 43.12C155.671 42.512 156.082 42.0533 156.647 41.744C157.212 41.424 157.9 41.264 158.711 41.264V43.568C158.604 43.5573 158.508 43.552 158.423 43.552C158.338 43.5413 158.247 43.536 158.151 43.536C157.468 43.536 156.914 43.7333 156.487 44.128C156.071 44.512 155.863 45.1147 155.863 45.936V50H153.367ZM159.891 50V41.392H162.275V43.824L161.939 43.12C162.195 42.512 162.605 42.0533 163.171 41.744C163.736 41.424 164.424 41.264 165.235 41.264V43.568C165.128 43.5573 165.032 43.552 164.947 43.552C164.861 43.5413 164.771 43.536 164.675 43.536C163.992 43.536 163.437 43.7333 163.011 44.128C162.595 44.512 162.387 45.1147 162.387 45.936V50H159.891ZM170.608 50.128C169.627 50.128 168.763 49.936 168.016 49.552C167.28 49.168 166.71 48.6453 166.304 47.984C165.899 47.312 165.696 46.5493 165.696 45.696C165.696 44.832 165.894 44.0693 166.288 43.408C166.694 42.736 167.243 42.2133 167.936 41.84C168.63 41.456 169.414 41.264 170.288 41.264C171.131 41.264 171.888 41.4453 172.56 41.808C173.243 42.16 173.782 42.672 174.176 43.344C174.571 44.0053 174.768 44.8 174.768 45.728C174.768 45.824 174.763 45.936 174.752 46.064C174.742 46.1813 174.731 46.2933 174.72 46.4H167.728V44.944H173.408L172.448 45.376C172.448 44.928 172.358 44.5387 172.176 44.208C171.995 43.8773 171.744 43.6213 171.424 43.44C171.104 43.248 170.731 43.152 170.304 43.152C169.878 43.152 169.499 43.248 169.168 43.44C168.848 43.6213 168.598 43.8827 168.416 44.224C168.235 44.5547 168.144 44.9493 168.144 45.408V45.792C168.144 46.2613 168.246 46.6773 168.448 47.04C168.662 47.392 168.955 47.664 169.328 47.856C169.712 48.0373 170.16 48.128 170.672 48.128C171.131 48.128 171.531 48.0587 171.872 47.92C172.224 47.7813 172.544 47.5733 172.832 47.296L174.16 48.736C173.766 49.184 173.27 49.5307 172.672 49.776C172.075 50.0107 171.387 50.128 170.608 50.128ZM179.806 50.128C178.995 50.128 178.265 49.9467 177.614 49.584C176.963 49.2107 176.446 48.6933 176.062 48.032C175.689 47.3707 175.502 46.592 175.502 45.696C175.502 44.7893 175.689 44.0053 176.062 43.344C176.446 42.6827 176.963 42.1707 177.614 41.808C178.265 41.4453 178.995 41.264 179.806 41.264C180.531 41.264 181.166 41.424 181.71 41.744C182.254 42.064 182.675 42.5493 182.974 43.2C183.273 43.8507 183.422 44.6827 183.422 45.696C183.422 46.6987 183.278 47.5307 182.99 48.192C182.702 48.8427 182.286 49.328 181.742 49.648C181.209 49.968 180.563 50.128 179.806 50.128ZM180.238 48.08C180.643 48.08 181.011 47.984 181.342 47.792C181.673 47.6 181.934 47.328 182.126 46.976C182.329 46.6133 182.43 46.1867 182.43 45.696C182.43 45.1947 182.329 44.768 182.126 44.416C181.934 44.064 181.673 43.792 181.342 43.6C181.011 43.408 180.643 43.312 180.238 43.312C179.822 43.312 179.449 43.408 179.118 43.6C178.787 43.792 178.521 44.064 178.318 44.416C178.126 44.768 178.03 45.1947 178.03 45.696C178.03 46.1867 178.126 46.6133 178.318 46.976C178.521 47.328 178.787 47.6 179.118 47.792C179.449 47.984 179.822 48.08 180.238 48.08ZM182.494 50V48.24L182.542 45.68L182.382 43.136V38.128H184.878V50H182.494ZM191.256 46.112L190.76 38.8H193.736L193.24 46.112H191.256ZM192.248 50.128C191.8 50.128 191.432 49.984 191.144 49.696C190.856 49.408 190.712 49.0667 190.712 48.672C190.712 48.2667 190.856 47.9307 191.144 47.664C191.432 47.3867 191.8 47.248 192.248 47.248C192.706 47.248 193.074 47.3867 193.352 47.664C193.64 47.9307 193.784 48.2667 193.784 48.672C193.784 49.0667 193.64 49.408 193.352 49.696C193.074 49.984 192.706 50.128 192.248 50.128ZM195.56 46.112L195.064 38.8H198.04L197.544 46.112H195.56ZM196.552 50.128C196.104 50.128 195.736 49.984 195.448 49.696C195.16 49.408 195.016 49.0667 195.016 48.672C195.016 48.2667 195.16 47.9307 195.448 47.664C195.736 47.3867 196.104 47.248 196.552 47.248C197.011 47.248 197.379 47.3867 197.656 47.664C197.944 47.9307 198.088 48.2667 198.088 48.672C198.088 49.0667 197.944 49.408 197.656 49.696C197.379 49.984 197.011 50.128 196.552 50.128ZM199.866 46.112L199.37 38.8H202.346L201.85 46.112H199.866ZM200.858 50.128C200.41 50.128 200.042 49.984 199.754 49.696C199.466 49.408 199.322 49.0667 199.322 48.672C199.322 48.2667 199.466 47.9307 199.754 47.664C200.042 47.3867 200.41 47.248 200.858 47.248C201.316 47.248 201.684 47.3867 201.962 47.664C202.25 47.9307 202.394 48.2667 202.394 48.672C202.394 49.0667 202.25 49.408 201.962 49.696C201.684 49.984 201.316 50.128 200.858 50.128Z" fill="#CACACA"/>
    </g>
    <defs>
        <clipPath id="clip0_1323_2226">
            <rect width="242.095" height="193" fill="white"/>
        </clipPath>
    </defs>
</svg>
