<svg width="24" height="24" viewBox="0 0 24 24" fill="none" xmlns="http://www.w3.org/2000/svg">
<g clip-path="url(#clip0_303_22219)">
<path d="M6 15.75C5.90129 15.7506 5.80345 15.7316 5.71207 15.6943C5.62069 15.657 5.53758 15.602 5.4675 15.5325L2.4675 12.5325C2.3972 12.4628 2.34141 12.3798 2.30333 12.2884C2.26525 12.197 2.24565 12.099 2.24565 12C2.24565 11.901 2.26525 11.8029 2.30333 11.7115C2.34141 11.6202 2.3972 11.5372 2.4675 11.4675L6.3525 7.58998C7.39234 6.54121 8.70401 5.80314 10.1402 5.45868C11.5763 5.11422 13.0801 5.177 14.4825 5.63998C14.5794 5.66664 14.67 5.7125 14.7488 5.77484C14.8276 5.83718 14.8931 5.91473 14.9414 6.00288C14.9897 6.09103 15.0197 6.18798 15.0298 6.28798C15.0399 6.38798 15.0297 6.48898 15 6.58498C14.9382 6.77386 14.804 6.9305 14.6268 7.0205C14.4496 7.1105 14.244 7.1265 14.055 7.06498C12.9149 6.69304 11.6941 6.64401 10.5278 6.92333C9.36156 7.20265 8.29541 7.79941 7.4475 8.64748L4.0575 12L6.5325 14.4675C6.6028 14.5372 6.65859 14.6202 6.69667 14.7115C6.73475 14.8029 6.75435 14.901 6.75435 15C6.75435 15.099 6.73475 15.197 6.69667 15.2884C6.65859 15.3798 6.6028 15.4628 6.5325 15.5325C6.46242 15.602 6.37931 15.657 6.28793 15.6943C6.19655 15.7316 6.09871 15.7506 6 15.75Z" fill="#1E1D1D"/>
<path d="M12 18.7499C10.2362 18.753 8.5214 18.1699 7.125 17.0924C7.04026 17.035 6.96818 16.9608 6.9132 16.8744C6.85822 16.788 6.82151 16.6913 6.80533 16.5902C6.78915 16.4891 6.79384 16.3858 6.81911 16.2866C6.84438 16.1873 6.8897 16.0943 6.95228 16.0133C7.01485 15.9323 7.09336 15.8649 7.18295 15.8153C7.27255 15.7658 7.37135 15.7351 7.47325 15.7252C7.57515 15.7153 7.67801 15.7263 7.77548 15.7577C7.87295 15.789 7.96297 15.84 8.04 15.9074C9.29162 16.8637 10.8472 17.3344 12.419 17.2323C13.9908 17.1303 15.4725 16.4625 16.59 15.3524L19.9425 11.9999L16.59 8.64743C16.4142 8.47236 16.229 8.30711 16.035 8.15243C15.9485 8.09494 15.8749 8.02011 15.8188 7.93269C15.7628 7.84526 15.7255 7.74715 15.7093 7.64456C15.6932 7.54197 15.6985 7.43714 15.7249 7.33671C15.7514 7.23629 15.7984 7.14245 15.8631 7.06115C15.9277 6.97985 16.0085 6.91286 16.1004 6.86441C16.1922 6.81597 16.2931 6.78714 16.3967 6.77974C16.5003 6.77234 16.6043 6.78653 16.7022 6.82142C16.8 6.85632 16.8895 6.91114 16.965 6.98243C17.2063 7.16887 17.4344 7.37186 17.6475 7.58993L21.5325 11.4674C21.6028 11.5372 21.6586 11.6201 21.6967 11.7115C21.7347 11.8029 21.7543 11.9009 21.7543 11.9999C21.7543 12.0989 21.7347 12.197 21.6967 12.2884C21.6586 12.3798 21.6028 12.4627 21.5325 12.5324L17.6475 16.4099C16.9066 17.1527 16.0263 17.7417 15.0572 18.1433C14.088 18.5449 13.0491 18.751 12 18.7499Z" fill="#1E1D1D"/>
<path d="M12 15C11.263 15.0044 10.5502 14.7375 9.9975 14.25C9.92412 14.184 9.86446 14.1042 9.82192 14.0152C9.77939 13.9261 9.7548 13.8296 9.74958 13.731C9.74436 13.6325 9.7586 13.5339 9.79148 13.4408C9.82437 13.3478 9.87526 13.2621 9.94125 13.1887C10.0072 13.1154 10.087 13.0557 10.1761 13.0132C10.2651 12.9706 10.3617 12.946 10.4602 12.9408C10.5588 12.9356 10.6574 12.9498 10.7504 12.9827C10.8435 13.0156 10.9291 13.0665 11.0025 13.1325C11.279 13.3726 11.6338 13.5034 12 13.5C12.3978 13.5 12.7794 13.3419 13.0607 13.0606C13.342 12.7793 13.5 12.3978 13.5 12C13.4992 11.6318 13.3631 11.2768 13.1175 11.0025C13.0515 10.9281 13.0008 10.8415 12.9683 10.7475C12.9358 10.6536 12.9221 10.5541 12.928 10.4549C12.9339 10.3557 12.9594 10.2586 13.0028 10.1691C13.0463 10.0797 13.1069 9.99972 13.1812 9.93373C13.2556 9.86774 13.3422 9.81705 13.4362 9.78454C13.5301 9.75203 13.6296 9.73834 13.7288 9.74426C13.8281 9.75018 13.9252 9.77559 14.0146 9.81904C14.104 9.86249 14.184 9.92312 14.25 9.99748C14.6377 10.4299 14.8915 10.9656 14.9807 11.5396C15.0698 12.1135 14.9904 12.7009 14.7522 13.2306C14.514 13.7603 14.1271 14.2094 13.6385 14.5235C13.15 14.8376 12.5808 15.0031 12 15Z" fill="#1E1D1D"/>
<path d="M9.8775 12C9.79306 11.9991 9.70938 11.9839 9.63 11.955C9.44349 11.8888 9.29073 11.7515 9.20503 11.573C9.11933 11.3946 9.10764 11.1895 9.1725 11.0025C9.3187 10.5787 9.55945 10.1936 9.87651 9.87654C10.1936 9.55948 10.5786 9.31874 11.0025 9.17253C11.1843 9.12594 11.377 9.14919 11.5424 9.2377C11.7079 9.32621 11.8342 9.47354 11.8964 9.65062C11.9585 9.82769 11.9521 10.0216 11.8782 10.1942C11.8044 10.3667 11.6685 10.5053 11.4975 10.5825C11.2864 10.6571 11.0946 10.778 10.9363 10.9363C10.7779 11.0946 10.6571 11.2864 10.5825 11.4975C10.5313 11.6439 10.4361 11.7708 10.3098 11.8608C10.1836 11.9508 10.0325 11.9994 9.8775 12Z" fill="#1E1D1D"/>
<path d="M6 18.75C5.9013 18.7506 5.80345 18.7317 5.71207 18.6943C5.62069 18.657 5.53758 18.602 5.4675 18.5325C5.3972 18.4628 5.34141 18.3798 5.30333 18.2884C5.26526 18.1971 5.24565 18.099 5.24565 18C5.24565 17.901 5.26526 17.803 5.30333 17.7116C5.34141 17.6202 5.3972 17.5372 5.4675 17.4675L17.4675 5.46752C17.6087 5.32629 17.8003 5.24695 18 5.24695C18.1997 5.24695 18.3913 5.32629 18.5325 5.46752C18.6737 5.60874 18.7531 5.80029 18.7531 6.00002C18.7531 6.19974 18.6737 6.39129 18.5325 6.53252L6.5325 18.5325C6.46242 18.602 6.37931 18.657 6.28793 18.6943C6.19655 18.7317 6.0987 18.7506 6 18.75Z" fill="#1E1D1D"/>
</g>
<defs>
<clipPath id="clip0_303_22219">
<rect width="24" height="24" fill="white"/>
</clipPath>
</defs>
</svg>
