<svg width="24" height="24" viewBox="0 0 24 24" fill="none" xmlns="http://www.w3.org/2000/svg">
<g clip-path="url(#clip0_307_22332)">
<path d="M5.39999 17.1937C7.21874 19.0125 9.61874 19.9313 12 19.9313C14.3812 19.9313 16.7812 19.0125 18.6 17.1937L23.7937 12L18.6 6.80625C14.9625 3.16875 9.01874 3.16875 5.38124 6.80625L0.206238 12L5.39999 17.1937ZM6.41249 7.81875C9.48749 4.74375 14.5125 4.74375 17.5875 7.81875L21.7687 12L17.5875 16.1813C14.5125 19.2563 9.48749 19.2563 6.41249 16.1813L2.23124 12L6.41249 7.81875Z" fill="#1E1D1D" stroke="#1E1D1D" stroke-width="0.3"/>
<path d="M12 15.9375C14.175 15.9375 15.9375 14.175 15.9375 12C15.9375 9.825 14.175 8.0625 12 8.0625V9.5625C13.35 9.5625 14.4375 10.65 14.4375 12C14.4375 13.35 13.35 14.4375 12 14.4375C10.65 14.4375 9.5625 13.35 9.5625 12H8.0625C8.0625 14.175 9.825 15.9375 12 15.9375Z" fill="#1E1D1D" stroke="#1E1D1D" stroke-width="0.3"/>
</g>
<defs>
<clipPath id="clip0_307_22332">
<rect width="24" height="24" fill="white"/>
</clipPath>
</defs>
</svg>
