<svg width="201" height="180" viewBox="0 0 201 180" fill="none" xmlns="http://www.w3.org/2000/svg">
<g clip-path="url(#clip0_53295_31640)">
<path d="M102.802 104.777L59.2055 105.544C58.5173 105.558 57.8333 105.435 57.1924 105.184C56.5516 104.933 55.9666 104.558 55.4709 104.081C54.9752 103.603 54.5785 103.032 54.3037 102.401C54.0288 101.77 53.8811 101.091 53.869 100.403C53.8569 99.7151 53.9806 99.0313 54.2331 98.391C54.4857 97.7507 54.862 97.1665 55.3406 96.6718C55.8192 96.1772 56.3907 95.7818 57.0223 95.5083C57.6539 95.2348 58.3332 95.0885 59.0214 95.0779L102.619 94.3114C103.268 94.3 103.896 94.5473 104.364 94.9988C104.832 95.4503 105.101 96.0691 105.112 96.7191L105.21 102.284C105.221 102.905 104.995 103.508 104.579 103.969C104.162 104.431 103.586 104.717 102.966 104.769C102.912 104.774 102.857 104.776 102.802 104.777Z" fill="#FF7D05"/>
<path d="M94.3829 106.2L58.6152 107.832C58.2937 107.847 57.9724 107.798 57.6697 107.689C57.367 107.579 57.0888 107.411 56.8511 107.194C56.6133 106.977 56.4207 106.716 56.284 106.424C56.1474 106.133 56.0696 105.817 56.0549 105.496L55.6764 97.2035C55.6467 96.5541 55.8763 95.9196 56.3145 95.4394C56.7527 94.9593 57.3637 94.6729 58.0131 94.6432L93.7808 93.0104C94.1023 92.9957 94.4236 93.0444 94.7263 93.1539C95.029 93.2634 95.3071 93.4314 95.5449 93.6483C95.7826 93.8653 95.9753 94.127 96.112 94.4184C96.2486 94.7099 96.3264 95.0254 96.3411 95.3469L96.7196 103.639C96.7478 104.272 96.5299 104.892 96.1116 105.368C95.6932 105.844 95.1069 106.14 94.4753 106.194C94.4448 106.196 94.4138 106.198 94.3829 106.2Z" fill="#2F2E41"/>
<path d="M33.897 177.342V130.955C33.8977 130.306 34.1562 129.683 34.6157 129.223C35.0752 128.764 35.6982 128.505 36.348 128.504H41.9137C42.5635 128.505 43.1865 128.764 43.646 129.223C44.1055 129.683 44.364 130.306 44.3647 130.955V177.342C44.364 177.992 44.1055 178.615 43.646 179.074C43.1865 179.534 42.5635 179.792 41.9137 179.793H36.348C35.6982 179.792 35.0752 179.534 34.6157 179.074C34.1562 178.615 33.8977 177.992 33.897 177.342Z" fill="#FF7D05"/>
<path d="M48.5024 177.342V130.955C48.5032 130.306 48.7616 129.683 49.2211 129.223C49.6806 128.764 50.3036 128.505 50.9535 128.504H56.5191C57.169 128.505 57.792 128.764 58.2515 129.223C58.711 129.683 58.9694 130.306 58.9702 130.955V177.342C58.9694 177.992 58.711 178.615 58.2515 179.074C57.792 179.534 57.169 179.792 56.5191 179.793H50.9535C50.3036 179.792 49.6807 179.534 49.2212 179.074C48.7617 178.615 48.5032 177.992 48.5024 177.342Z" fill="#FF7D05"/>
<path d="M49.9563 80.0947C60.5774 80.0947 69.1875 71.4846 69.1875 60.8635C69.1875 50.2424 60.5774 41.6323 49.9563 41.6323C39.3352 41.6323 30.7251 50.2424 30.7251 60.8635C30.7251 71.4846 39.3352 80.0947 49.9563 80.0947Z" fill="#FF7D05"/>
<path d="M60.3657 67.4296C60.9843 67.2263 61.5522 66.8929 62.0312 66.4519C62.3486 66.137 62.5933 65.7565 62.7482 65.3371C62.903 64.9177 62.9643 64.4694 62.9277 64.0239C62.9076 63.7064 62.8144 63.3978 62.6552 63.1224C62.4961 62.8469 62.2754 62.612 62.0105 62.4359C61.3228 61.9948 60.403 61.9935 59.4664 62.4062L59.5019 54.8986L58.7478 54.895L58.7061 63.721L59.2871 63.3555C59.961 62.9323 60.9233 62.6345 61.6032 63.0708C61.7712 63.186 61.9104 63.3385 62.0099 63.5163C62.1094 63.6941 62.1666 63.8925 62.177 64.096C62.2024 64.4279 62.156 64.7614 62.041 65.0738C61.926 65.3862 61.745 65.6702 61.5104 65.9064C60.6776 66.7018 59.4626 66.9506 58.0771 67.1729L58.1967 67.9174C58.9328 67.8199 59.6587 67.6566 60.3657 67.4296Z" fill="#2F2E41"/>
<path d="M67.2764 54.5195L63.2495 55.0513L63.3482 55.7989L67.3751 55.2671L67.2764 54.5195Z" fill="#2F2E41"/>
<path d="M54.5659 56.1977L50.5391 56.7295L50.6378 57.4771L54.6646 56.9453L54.5659 56.1977Z" fill="#2F2E41"/>
<path d="M9.15609 59.3452L36.7676 93.0927C37.2032 93.6246 37.5297 94.2371 37.7285 94.8952C37.9273 95.5533 37.9945 96.2442 37.9262 96.9282C37.858 97.6123 37.6556 98.2763 37.3307 98.8822C37.0058 99.488 36.5647 100.024 36.0326 100.459C35.5005 100.895 34.8878 101.221 34.2296 101.419C33.5714 101.618 32.8806 101.685 32.1965 101.616C31.5124 101.548 30.8486 101.345 30.2428 101.02C29.6371 100.695 29.1014 100.253 28.6663 99.7211L1.05464 65.9737C0.850789 65.7246 0.698 65.4378 0.605006 65.1297C0.512012 64.8215 0.480625 64.4981 0.512644 64.1778C0.544663 63.8575 0.639454 63.5467 0.79161 63.263C0.943766 62.9794 1.1503 62.7285 1.39943 62.5247L5.70691 59.0003C6.21006 58.5887 6.85611 58.3938 7.50294 58.4585C8.14977 58.5232 8.74441 58.8421 9.15608 59.3452H9.15609Z" fill="#FF7D05"/>
<path d="M18.3645 66.8769L41.0376 94.5885C41.2414 94.8376 41.3942 95.1244 41.4872 95.4325C41.5802 95.7407 41.6116 96.0641 41.5795 96.3844C41.5475 96.7047 41.4527 97.0155 41.3006 97.2991C41.1484 97.5828 40.9419 97.8337 40.6927 98.0375L33.3353 104.057C33.0862 104.261 32.7994 104.414 32.4913 104.507C32.1831 104.6 31.8596 104.631 31.5394 104.599C31.2191 104.567 30.9082 104.472 30.6246 104.32C30.341 104.168 30.0901 103.961 29.8863 103.712L7.21308 76.0009C6.80217 75.4975 6.60769 74.8517 6.67233 74.2051C6.73697 73.5585 7.05545 72.964 7.55789 72.5519L14.9154 66.532C15.4185 66.1204 16.0645 65.9255 16.7114 65.9902C17.3582 66.0549 17.9528 66.3739 18.3645 66.877L18.3645 66.8769Z" fill="#2F2E41"/>
<path d="M175.559 33.1884C175.281 32.5301 174.817 31.9676 174.224 31.5703C173.63 31.1731 172.933 30.9587 172.218 30.9536H105.546C104.587 30.9541 103.668 31.3351 102.991 32.0128C102.313 32.6904 101.932 33.6094 101.932 34.5678V118.915C101.932 119.873 102.313 120.792 102.991 121.47C103.668 122.148 104.587 122.529 105.546 122.529H172.221C173.179 122.528 174.098 122.147 174.775 121.469C175.453 120.792 175.834 119.873 175.835 118.915V34.5678C175.837 34.0943 175.744 33.6254 175.561 33.1884H175.559ZM175.03 118.915C175.029 119.66 174.733 120.375 174.206 120.902C173.679 121.429 172.964 121.726 172.219 121.727H105.546C104.8 121.726 104.085 121.43 103.558 120.903C103.031 120.376 102.735 119.661 102.734 118.915V34.5683C102.735 33.8229 103.032 33.1084 103.559 32.5813C104.086 32.0543 104.8 31.7577 105.546 31.7567H172.221C172.782 31.7588 173.331 31.9282 173.795 32.2432C174.26 32.5582 174.621 33.0046 174.831 33.5254C174.871 33.6291 174.907 33.735 174.936 33.8426C175 34.0792 175.032 34.3232 175.032 34.5683L175.03 118.915Z" fill="#3F3D56"/>
<path d="M161.645 50.8677H141.562C141.351 50.868 141.142 50.8267 140.947 50.7461C140.751 50.6655 140.574 50.5472 140.425 50.398C140.275 50.2487 140.157 50.0715 140.076 49.8764C139.995 49.6813 139.953 49.4722 139.953 49.261C139.953 49.0498 139.995 48.8406 140.076 48.6456C140.157 48.4505 140.275 48.2732 140.425 48.124C140.574 47.9748 140.751 47.8565 140.947 47.7759C141.142 47.6953 141.351 47.654 141.562 47.6543H161.645C161.856 47.654 162.065 47.6953 162.261 47.7759C162.456 47.8565 162.633 47.9748 162.783 48.124C162.932 48.2732 163.051 48.4505 163.132 48.6456C163.213 48.8406 163.254 49.0498 163.254 49.261C163.254 49.4722 163.213 49.6813 163.132 49.8764C163.051 50.0715 162.932 50.2487 162.783 50.398C162.633 50.5472 162.456 50.6655 162.261 50.7461C162.065 50.8267 161.856 50.868 161.645 50.8677Z" fill="#3F3D56"/>
<path d="M161.645 59.3022H141.562C141.351 59.3026 141.142 59.2612 140.947 59.1806C140.751 59.1 140.574 58.9818 140.425 58.8325C140.275 58.6833 140.157 58.5061 140.076 58.311C139.995 58.1159 139.953 57.9067 139.953 57.6955C139.953 57.4843 139.995 57.2752 140.076 57.0801C140.157 56.885 140.275 56.7078 140.425 56.5586C140.574 56.4094 140.751 56.291 140.947 56.2104C141.142 56.1299 141.351 56.0885 141.562 56.0889H161.645C161.856 56.0885 162.065 56.1299 162.261 56.2104C162.456 56.291 162.633 56.4094 162.783 56.5586C162.932 56.7078 163.051 56.885 163.132 57.0801C163.213 57.2752 163.254 57.4843 163.254 57.6955C163.254 57.9067 163.213 58.1159 163.132 58.311C163.051 58.5061 162.932 58.6833 162.783 58.8325C162.633 58.9818 162.456 59.1 162.261 59.1806C162.065 59.2612 161.856 59.3026 161.645 59.3022Z" fill="#3F3D56"/>
<path d="M131.258 64.1053H116.582C116.103 64.1048 115.643 63.9142 115.304 63.5753C114.966 63.2365 114.775 62.777 114.774 62.2978V44.9785C114.775 44.4992 114.966 44.0398 115.304 43.7009C115.643 43.362 116.103 43.1714 116.582 43.1709H131.258C131.738 43.1714 132.197 43.362 132.536 43.7009C132.875 44.0398 133.065 44.4992 133.066 44.9785V62.2978C133.065 62.777 132.875 63.2365 132.536 63.5753C132.197 63.9142 131.738 64.1048 131.258 64.1053Z" fill="#FF7D05"/>
<path d="M161.506 76.5737H116.119C115.693 76.5737 115.284 76.4044 114.983 76.1031C114.681 75.8018 114.512 75.3931 114.512 74.967C114.512 74.5409 114.681 74.1322 114.983 73.8309C115.284 73.5296 115.693 73.3604 116.119 73.3604H161.506C161.932 73.3604 162.341 73.5296 162.642 73.8309C162.943 74.1322 163.113 74.5409 163.113 74.967C163.113 75.3931 162.943 75.8018 162.642 76.1031C162.341 76.4044 161.932 76.5737 161.506 76.5737Z" fill="#CCCCCC"/>
<path d="M161.506 85.0083H116.119C115.693 85.0076 115.285 84.8381 114.984 84.5368C114.684 84.2356 114.515 83.8273 114.515 83.4016C114.515 82.9759 114.684 82.5676 114.984 82.2664C115.285 81.9652 115.693 81.7956 116.119 81.7949H161.506C161.717 81.7946 161.926 81.8359 162.121 81.9165C162.317 81.9971 162.494 82.1154 162.643 82.2646C162.793 82.4139 162.912 82.5911 162.992 82.7862C163.073 82.9813 163.115 83.1904 163.115 83.4016C163.115 83.6128 163.073 83.8219 162.992 84.017C162.912 84.2121 162.793 84.3894 162.643 84.5386C162.494 84.6878 162.317 84.8061 162.121 84.8867C161.926 84.9673 161.717 85.0086 161.506 85.0083Z" fill="#CCCCCC"/>
<path d="M161.506 93.4429H116.119C115.693 93.4422 115.285 93.2726 114.984 92.9714C114.684 92.6702 114.515 92.2619 114.515 91.8362C114.515 91.4105 114.684 91.0022 114.984 90.701C115.285 90.3997 115.693 90.2302 116.119 90.2295H161.506C161.717 90.2292 161.926 90.2705 162.121 90.3511C162.317 90.4317 162.494 90.55 162.643 90.6992C162.793 90.8484 162.912 91.0257 162.992 91.2207C163.073 91.4158 163.115 91.625 163.115 91.8362C163.115 92.0474 163.073 92.2565 162.992 92.4516C162.912 92.6467 162.793 92.8239 162.643 92.9732C162.494 93.1224 162.317 93.2407 162.121 93.3213C161.926 93.4019 161.717 93.4432 161.506 93.4429Z" fill="#CCCCCC"/>
<path d="M161.506 101.878H116.119C115.693 101.877 115.285 101.708 114.984 101.406C114.684 101.105 114.515 100.697 114.515 100.271C114.515 99.8456 114.684 99.4373 114.984 99.136C115.285 98.8348 115.693 98.6652 116.119 98.6646H161.506C161.717 98.6642 161.926 98.7055 162.121 98.7861C162.317 98.8667 162.494 98.985 162.643 99.1343C162.793 99.2835 162.912 99.4607 162.992 99.6558C163.073 99.8509 163.115 100.06 163.115 100.271C163.115 100.482 163.073 100.692 162.992 100.887C162.912 101.082 162.793 101.259 162.643 101.408C162.494 101.557 162.317 101.676 162.121 101.756C161.926 101.837 161.717 101.878 161.506 101.878Z" fill="#CCCCCC"/>
<path d="M161.506 110.312H116.119C115.693 110.312 115.285 110.142 114.984 109.841C114.684 109.54 114.515 109.131 114.515 108.706C114.515 108.28 114.684 107.872 114.984 107.571C115.285 107.269 115.693 107.1 116.119 107.099H161.506C161.717 107.099 161.926 107.14 162.121 107.221C162.317 107.301 162.494 107.42 162.643 107.569C162.793 107.718 162.912 107.895 162.992 108.09C163.073 108.285 163.115 108.495 163.115 108.706C163.115 108.917 163.073 109.126 162.992 109.321C162.912 109.516 162.793 109.694 162.643 109.843C162.494 109.992 162.317 110.11 162.121 110.191C161.926 110.271 161.717 110.313 161.506 110.312Z" fill="#CCCCCC"/>
<path d="M177.499 46.0017C190.202 46.0017 200.5 35.7039 200.5 23.0009C200.5 10.2978 190.202 0 177.499 0C164.796 0 154.498 10.2978 154.498 23.0009C154.498 35.7039 164.796 46.0017 177.499 46.0017Z" fill="#FF7D05"/>
<path d="M177.054 38.8327C178.548 38.8327 179.76 37.621 179.76 36.1263C179.76 34.6316 178.548 33.4199 177.054 33.4199C175.559 33.4199 174.347 34.6316 174.347 36.1263C174.347 37.621 175.559 38.8327 177.054 38.8327Z" fill="white"/>
<path d="M176.764 7.88596C174.723 7.90619 172.772 8.72182 171.324 10.1593C169.876 11.5967 169.046 13.5425 169.011 15.5825C169.01 15.6216 169.01 15.8962 169.01 16.2553C169.01 16.7818 169.219 17.2868 169.591 17.6591C169.964 18.0314 170.469 18.2406 170.995 18.2407C171.522 18.2406 172.027 18.0312 172.4 17.6585C172.772 17.2858 172.982 16.7804 172.981 16.2535V16.2522C172.981 16.0079 172.981 15.8388 172.981 15.8285C172.981 15.1748 173.151 14.5324 173.474 13.9644C173.798 13.3964 174.264 12.9223 174.826 12.5889C175.388 12.2555 176.027 12.0742 176.681 12.0628C177.335 12.0514 177.98 12.2104 178.553 12.524C179.127 12.8376 179.609 13.2952 179.952 13.8516C180.295 14.408 180.487 15.0441 180.51 15.6974C180.532 16.3506 180.385 16.9985 180.081 17.5773C179.777 18.1561 179.328 18.6459 178.778 18.9985L178.778 18.9993C178.778 18.9993 175.952 20.8185 175.091 23.314L175.092 23.3142C174.94 23.8254 174.863 24.3559 174.864 24.8891C174.864 25.1082 174.877 27.026 174.902 28.5826C174.91 29.1196 175.13 29.6318 175.513 30.0085C175.896 30.3851 176.411 30.5962 176.948 30.5961C177.217 30.596 177.484 30.5431 177.732 30.4402C177.98 30.3373 178.206 30.1865 178.396 29.9964C178.586 29.8063 178.737 29.5806 178.84 29.3322C178.943 29.0838 178.996 28.8176 178.996 28.5488L178.996 28.5362C178.987 27.1107 178.982 25.4508 178.982 25.3303C178.982 23.798 180.461 22.2712 181.675 21.2756C183.08 20.1372 184.068 18.5645 184.483 16.8042C184.573 16.4413 184.622 16.0697 184.63 15.6961C184.63 14.6704 184.428 13.6548 184.036 12.7072C183.643 11.7596 183.068 10.8986 182.343 10.1733C181.618 9.44809 180.757 8.87278 179.809 8.48027C178.861 8.08776 177.846 7.88574 176.82 7.88574C176.801 7.88574 176.782 7.88582 176.764 7.88596Z" fill="white"/>
<path d="M45.1348 52.3549C48.578 50.0913 52.9053 51.1097 56.7323 51.4054C60.1902 51.6725 64.2888 51.4093 66.7209 48.5841C69.2511 45.6449 69.0397 41.2809 66.9448 38.1721C64.8829 35.1121 61.46 33.1799 57.839 32.6704C55.8327 32.3765 53.7872 32.5034 51.8327 33.0432C49.8781 33.5829 48.0574 34.5237 46.4863 35.8055L47.7169 36.3153C46.9997 29.4591 41.9587 23.261 35.1953 21.5797C28.3521 19.8787 20.6993 22.7818 17.0484 28.8834C13.4491 34.8986 13.8755 43.2921 19.0562 48.2909C21.5442 50.6915 24.9286 51.9144 28.3632 51.2619C31.5308 50.66 34.3453 48.3508 34.9381 45.09C35.4876 42.0671 34.2872 38.6337 31.3469 37.3135C30.5423 36.9383 29.6631 36.7507 28.7754 36.7649C27.8878 36.7791 27.015 36.9947 26.2228 37.3954C25.5054 37.799 24.8991 38.3742 24.4584 39.0695C24.0176 39.7648 23.7561 40.5585 23.6971 41.3796C23.6423 42.1745 23.8043 42.9694 24.1657 43.6796C24.5739 44.5128 25.8177 43.7828 25.4107 42.9519C25.1477 42.3409 25.073 41.6654 25.196 41.0117C25.319 40.358 25.6343 39.7559 26.1014 39.2824C27.1702 38.1659 28.8573 37.9804 30.2775 38.4369C32.8762 39.2722 34.0236 42.2534 33.5339 44.7824C32.9854 47.6152 30.5671 49.4355 27.8135 49.9015C24.819 50.4084 21.8988 49.1439 19.8201 47.0173C15.4668 42.5636 15.0901 35.3903 18.0267 30.0747C21.0058 24.6823 27.3606 21.7867 33.4136 22.6912C39.3991 23.5857 44.3285 28.2935 45.8645 34.0984C46.0582 34.8257 46.1955 35.5669 46.2751 36.3153C46.28 36.4556 46.3252 36.5916 46.4052 36.7069C46.4853 36.8223 46.5968 36.9122 46.7265 36.9659C46.8562 37.0197 46.9987 37.035 47.1368 37.01C47.275 36.985 47.4031 36.9208 47.5058 36.8251C52.6203 32.5773 61.1271 33.0329 65.3208 38.3767C67.3775 40.9973 67.9836 45.0668 65.5819 47.6993C63.2951 50.2059 59.4974 50.2084 56.374 49.9339C52.3784 49.5827 47.9861 48.757 44.407 51.1099C43.6349 51.6176 44.3564 52.8666 45.1348 52.3549V52.3549Z" fill="#2F2E41"/>
<path d="M60.6424 147.131H31.8058C31.2324 147.13 30.6827 146.902 30.2772 146.497C29.8717 146.091 29.6437 145.542 29.6431 144.968V135.356C29.6437 134.783 29.8717 134.233 30.2772 133.828C30.6827 133.422 31.2324 133.194 31.8058 133.193H60.6424C61.2158 133.194 61.7656 133.422 62.171 133.828C62.5765 134.233 62.8046 134.783 62.8052 135.356V144.968C62.8046 145.542 62.5765 146.091 62.171 146.497C61.7656 146.902 61.2158 147.13 60.6424 147.131Z" fill="#2F2E41"/>
<path d="M61.6278 99.7406C60.7249 95.1234 57.2184 91.4669 52.6673 89.9635C54.3108 89.4347 55.3557 88.6516 55.3557 87.7758C55.3557 86.1831 51.9129 84.8921 47.6659 84.8921C43.419 84.8921 39.9762 86.1831 39.9762 87.7758C39.9762 88.6643 41.0495 89.4584 42.7347 89.9873C35.7573 92.0676 30.6928 98.14 30.6928 105.291C30.6928 105.291 28.545 119.059 26.8587 130.066C25.7798 137.107 31.6747 143.401 39.3464 143.401H66.3272C68.0945 143.401 69.5323 142.068 69.5323 140.429C69.5323 140.429 64.5607 114.739 61.6278 99.7406Z" fill="#2F2E41"/>
</g>
<defs>
<clipPath id="clip0_53295_31640">
<rect width="200" height="179.793" fill="white" transform="translate(0.5)"/>
</clipPath>
</defs>
</svg>
