<svg width="24" height="24" viewBox="0 0 24 24" fill="none" xmlns="http://www.w3.org/2000/svg">
<g clip-path="url(#clip0_53295_30821)">
<path d="M11.1002 23.2999V21.4249C8.8002 21.1749 6.8627 20.2666 5.2877 18.7C3.7127 17.1333 2.80853 15.2 2.5752 12.9H0.700195V11.1H2.5752C2.8252 8.79995 3.73353 6.86245 5.3002 5.28745C6.86686 3.71245 8.8002 2.80828 11.1002 2.57495V0.699951H12.9002V2.57495C15.2002 2.80828 17.1335 3.71245 18.7002 5.28745C20.2669 6.86245 21.1752 8.79995 21.4252 11.1H23.3002V12.9H21.4252C21.1919 15.2 20.2877 17.1333 18.7127 18.7C17.1377 20.2666 15.2002 21.1749 12.9002 21.4249V23.2999H11.1002ZM12.0002 19.475C14.0502 19.475 15.8085 18.7416 17.2752 17.275C18.7419 15.8083 19.4752 14.05 19.4752 12C19.4752 9.94995 18.7419 8.19162 17.2752 6.72495C15.8085 5.25828 14.0502 4.52495 12.0002 4.52495C9.9502 4.52495 8.19186 5.25828 6.7252 6.72495C5.25853 8.19162 4.5252 9.94995 4.5252 12C4.5252 14.05 5.25853 15.8083 6.7252 17.275C8.19186 18.7416 9.9502 19.475 12.0002 19.475ZM12.0002 15.75C10.9502 15.75 10.0627 15.3875 9.3377 14.6625C8.6127 13.9375 8.2502 13.05 8.2502 12C8.2502 10.95 8.6127 10.0625 9.3377 9.33745C10.0627 8.61245 10.9502 8.24995 12.0002 8.24995C13.0502 8.24995 13.9377 8.61245 14.6627 9.33745C15.3877 10.0625 15.7502 10.95 15.7502 12C15.7502 13.05 15.3877 13.9375 14.6627 14.6625C13.9377 15.3875 13.0502 15.75 12.0002 15.75ZM12.0002 13.925C12.5335 13.925 12.9877 13.7416 13.3627 13.375C13.7377 13.0083 13.9252 12.55 13.9252 12C13.9252 11.4666 13.7419 11.0125 13.3752 10.6375C13.0085 10.2625 12.5502 10.075 12.0002 10.075C11.4669 10.075 11.0127 10.2583 10.6377 10.625C10.2627 10.9916 10.0752 11.45 10.0752 12C10.0752 12.5333 10.2585 12.9875 10.6252 13.3625C10.9919 13.7375 11.4502 13.925 12.0002 13.925Z" fill="#7E7571"/>
</g>
<defs>
<clipPath id="clip0_53295_30821">
<rect width="24" height="24" fill="white"/>
</clipPath>
</defs>
</svg>
