<svg width="24" height="24" viewBox="0 0 24 24" fill="none" xmlns="http://www.w3.org/2000/svg">
<path d="M9.3999 22.35L8.8749 19.1C8.60824 19 8.32074 18.8625 8.0124 18.6875C7.70407 18.5125 7.44157 18.3333 7.2249 18.15L4.1749 19.575L1.5249 14.875L4.3249 12.85C4.29157 12.7333 4.27074 12.5917 4.2624 12.425C4.25407 12.2583 4.2499 12.1167 4.2499 12C4.2499 11.8833 4.25407 11.7417 4.2624 11.575C4.27074 11.4083 4.29157 11.2667 4.3249 11.15L1.5249 9.1L4.1749 4.45L7.2499 5.85C7.46657 5.66667 7.7249 5.49167 8.0249 5.325C8.3249 5.15833 8.60824 5.03333 8.8749 4.95L9.3999 1.625H14.5999L15.1249 4.925C15.3916 5.025 15.6791 5.15417 15.9874 5.3125C16.2957 5.47083 16.5582 5.65 16.7749 5.85L19.8249 4.45L22.4749 9.1L19.6749 11.1C19.6916 11.2333 19.7082 11.3833 19.7249 11.55C19.7416 11.7167 19.7499 11.8667 19.7499 12C19.7499 12.1333 19.7416 12.2792 19.7249 12.4375C19.7082 12.5958 19.6916 12.7417 19.6749 12.875L22.4749 14.875L19.8249 19.575L16.7499 18.15C16.5332 18.3333 16.2791 18.5167 15.9874 18.7C15.6957 18.8833 15.4082 19.0167 15.1249 19.1L14.5999 22.35H9.3999ZM11.9749 15.25C12.8749 15.25 13.6416 14.9333 14.2749 14.3C14.9082 13.6667 15.2249 12.9 15.2249 12C15.2249 11.1 14.9082 10.3333 14.2749 9.7C13.6416 9.06667 12.8749 8.75 11.9749 8.75C11.0749 8.75 10.3082 9.06667 9.6749 9.7C9.04157 10.3333 8.7249 11.1 8.7249 12C8.7249 12.9 9.04157 13.6667 9.6749 14.3C10.3082 14.9333 11.0749 15.25 11.9749 15.25ZM11.9749 13.75C11.4749 13.75 11.0582 13.5792 10.7249 13.2375C10.3916 12.8958 10.2249 12.4833 10.2249 12C10.2249 11.5167 10.3916 11.1042 10.7249 10.7625C11.0582 10.4208 11.4749 10.25 11.9749 10.25C12.4582 10.25 12.8707 10.4208 13.2124 10.7625C13.5541 11.1042 13.7249 11.5167 13.7249 12C13.7249 12.4833 13.5541 12.8958 13.2124 13.2375C12.8707 13.5792 12.4582 13.75 11.9749 13.75ZM11.0249 20.375H12.9749L13.3249 17.575C13.8916 17.4417 14.4291 17.2333 14.9374 16.95C15.4457 16.6667 15.8999 16.3167 16.2999 15.9L18.9499 17.05L19.8249 15.425L17.4999 13.725C17.5666 13.4417 17.6207 13.1583 17.6624 12.875C17.7041 12.5917 17.7249 12.3 17.7249 12C17.7249 11.7 17.7082 11.4083 17.6749 11.125C17.6416 10.8417 17.5832 10.5583 17.4999 10.275L19.8249 8.575L18.9499 6.95L16.2999 8.1C15.9166 7.65 15.4749 7.27083 14.9749 6.9625C14.4749 6.65417 13.9249 6.46667 13.3249 6.4L12.9749 3.625H11.0249L10.6749 6.4C10.0916 6.5 9.54574 6.7 9.0374 7C8.52907 7.3 8.0749 7.66667 7.6749 8.1L5.0499 6.95L4.1749 8.575L6.4749 10.25C6.40824 10.55 6.35407 10.8417 6.3124 11.125C6.27074 11.4083 6.2499 11.7 6.2499 12C6.2499 12.3 6.27074 12.5958 6.3124 12.8875C6.35407 13.1792 6.40824 13.4667 6.4749 13.75L4.1749 15.425L5.0499 17.05L7.6749 15.9C8.09157 16.3167 8.55407 16.6708 9.0624 16.9625C9.57074 17.2542 10.1082 17.4667 10.6749 17.6L11.0249 20.375Z" fill="#7E7571"/>
</svg>
