<svg width="17" height="16" viewBox="0 0 17 16" fill="none" xmlns="http://www.w3.org/2000/svg">
<g id="9023791_star_half_fill_icon 1" clip-path="url(#clip0_190_3940)">
<path id="Vector" d="M15.8844 6.08737C15.8179 5.89048 15.6897 5.7171 15.5167 5.58996C15.3437 5.46281 15.1339 5.38784 14.9149 5.37487L10.9969 5.13737C10.9911 5.13672 10.9856 5.13464 10.9809 5.13135C10.9763 5.12805 10.9726 5.12367 10.9703 5.11862L9.50938 1.64987C9.43052 1.45822 9.29192 1.2935 9.11178 1.17734C8.93163 1.06118 8.71837 0.999023 8.50001 0.999023C8.28164 0.999023 8.06838 1.06118 7.88824 1.17734C7.7081 1.2935 7.56949 1.45822 7.49063 1.64987L6.0297 5.11862C6.02741 5.12367 6.02375 5.12805 6.01908 5.13135C6.01442 5.13464 6.00892 5.13672 6.00313 5.13737L2.08516 5.37487C1.86609 5.38784 1.6563 5.46281 1.48329 5.58996C1.31027 5.7171 1.18212 5.89048 1.11563 6.08737C1.04653 6.28682 1.04249 6.50118 1.10404 6.70282C1.16559 6.90445 1.2899 7.0841 1.46095 7.21862L4.46251 9.56862C4.46934 9.57504 4.47418 9.58308 4.47652 9.59189C4.47886 9.6007 4.47861 9.60994 4.47579 9.61862L3.57931 12.9374C3.5182 13.1619 3.52981 13.3985 3.61264 13.6168C3.69547 13.8351 3.84574 14.0251 4.04415 14.1624C4.23741 14.2929 4.46767 14.3662 4.70545 14.3729C4.94323 14.3796 5.17772 14.3193 5.37891 14.1999L8.49337 12.3436H8.50665L11.8602 14.3374C12.0322 14.4426 12.2327 14.499 12.4379 14.4999C12.6642 14.497 12.8842 14.4294 13.0688 14.3061C13.2491 14.1831 13.3855 14.0115 13.4602 13.8141C13.5349 13.6166 13.5443 13.4025 13.4871 13.1999L12.5242 9.61862C12.5214 9.60994 12.5212 9.6007 12.5235 9.59189C12.5258 9.58308 12.5307 9.57504 12.5375 9.56862L15.5391 7.21862C15.7101 7.0841 15.8344 6.90445 15.896 6.70282C15.9575 6.50118 15.9535 6.28682 15.8844 6.08737ZM14.8617 6.44987L11.8535 8.79987C11.6938 8.92743 11.5754 9.09473 11.512 9.28263C11.4486 9.47054 11.4427 9.67145 11.4949 9.86237L12.4578 13.4436C12.4645 13.4686 12.4645 13.4749 12.4578 13.4811C12.4534 13.4892 12.4464 13.4957 12.4379 13.4999H12.4246L9.07774 11.4999C8.90516 11.3965 8.70455 11.3423 8.50001 11.3436V1.99987C8.50665 1.99987 8.51329 1.99987 8.51993 2.01862L9.98751 5.48737C10.0623 5.66795 10.19 5.82487 10.3557 5.93991C10.5214 6.05496 10.7184 6.12343 10.9238 6.13737L14.8484 6.37487C14.8551 6.37487 14.8617 6.37487 14.8684 6.39987C14.875 6.42487 14.8684 6.44362 14.8617 6.44987Z" fill="url(#paint0_linear_190_3940)"/>
</g>
<defs>
<linearGradient id="paint0_linear_190_3940" x1="8.50001" y1="0.999023" x2="8.50001" y2="14.4999" gradientUnits="userSpaceOnUse">
<stop stop-color="#DA7211"/>
<stop offset="1" stop-color="#F2CE28"/>
</linearGradient>
<clipPath id="clip0_190_3940">
<rect width="17" height="16" fill="white"/>
</clipPath>
</defs>
</svg>
