<svg width="17" height="16" viewBox="0 0 17 16" fill="none" xmlns="http://www.w3.org/2000/svg">
<g id="Icon/star-fill">
<path id="&#240;&#159;&#142;&#168; Icon &#208;&#161;olor" fill-rule="evenodd" clip-rule="evenodd" d="M12.4395 14.0007C12.3276 14.0007 12.215 13.976 12.1116 13.9253L8.49976 12.1493L4.88868 13.9253C4.64926 14.042 4.36026 14.022 4.14351 13.8727C3.92535 13.7233 3.81697 13.4707 3.86301 13.2207L4.55081 9.46868L1.63247 6.81201C1.43839 6.63535 1.36826 6.37001 1.45114 6.12735C1.53401 5.88601 1.75572 5.70935 2.02347 5.67335L6.06097 5.12135L7.86581 1.70401C8.10522 1.25068 8.89501 1.25068 9.13443 1.70401L10.9393 5.12135L14.9768 5.67335C15.2445 5.70935 15.4662 5.88601 15.5491 6.12735C15.632 6.37001 15.5618 6.63535 15.3678 6.81201L12.4494 9.46868L13.1372 13.2207C13.1833 13.4707 13.0742 13.7233 12.8567 13.8727C12.7335 13.958 12.5868 14.0007 12.4395 14.0007Z" fill="url(#paint0_linear_1_3080)"/>
<mask id="mask0_1_3080" style="mask-type:luminance" maskUnits="userSpaceOnUse" x="1" y="1" width="15" height="14">
<path id="&#240;&#159;&#142;&#168; Icon &#208;&#161;olor_2" fill-rule="evenodd" clip-rule="evenodd" d="M12.4395 14.0007C12.3276 14.0007 12.215 13.976 12.1116 13.9253L8.49976 12.1493L4.88868 13.9253C4.64926 14.042 4.36026 14.022 4.14351 13.8727C3.92535 13.7233 3.81697 13.4707 3.86301 13.2207L4.55081 9.46868L1.63247 6.81201C1.43839 6.63535 1.36826 6.37001 1.45114 6.12735C1.53401 5.88601 1.75572 5.70935 2.02347 5.67335L6.06097 5.12135L7.86581 1.70401C8.10522 1.25068 8.89501 1.25068 9.13443 1.70401L10.9393 5.12135L14.9768 5.67335C15.2445 5.70935 15.4662 5.88601 15.5491 6.12735C15.632 6.37001 15.5618 6.63535 15.3678 6.81201L12.4494 9.46868L13.1372 13.2207C13.1833 13.4707 13.0742 13.7233 12.8567 13.8727C12.7335 13.958 12.5868 14.0007 12.4395 14.0007Z" fill="white"/>
</mask>
<g mask="url(#mask0_1_3080)">
</g>
</g>
<defs>
<linearGradient id="paint0_linear_1_3080" x1="2.14226" y1="11.0845" x2="15.5379" y2="10.04" gradientUnits="userSpaceOnUse">
<stop stop-color="#DA7211"/>
<stop offset="1" stop-color="#F2CE28"/>
</linearGradient>
</defs>
</svg>
