<svg width="17" height="16" viewBox="0 0 17 16" fill="none" xmlns="http://www.w3.org/2000/svg">
<g id="Icon/star">
<path id="&#240;&#159;&#142;&#168; Icon &#208;&#161;olor" fill-rule="evenodd" clip-rule="evenodd" d="M8.49965 10.6999C8.61228 10.6999 8.7249 10.7252 8.82761 10.7752L11.4973 12.0886L10.9894 9.31725C10.9491 9.09991 11.0263 8.87858 11.1949 8.72458L13.3454 6.76725L10.3682 6.35925C10.138 6.32791 9.93898 6.19258 9.83557 5.99658L8.49965 3.46725L7.16373 5.99658C7.06032 6.19258 6.86127 6.32791 6.63107 6.35925L3.65394 6.76725L5.80444 8.72458C5.97302 8.87858 6.05023 9.09991 6.00986 9.31725L5.50198 12.0886L8.17169 10.7752C8.2744 10.7252 8.38703 10.6999 8.49965 10.6999ZM12.4394 13.9699C12.3268 13.9699 12.2141 13.9453 12.1114 13.8946L8.49964 12.1186L4.88785 13.8946C4.64843 14.0119 4.35943 13.9913 4.14339 13.8419C3.92522 13.6926 3.81685 13.4399 3.86218 13.1899L4.55068 9.43792L1.63235 6.78125C1.43755 6.60459 1.36814 6.33925 1.45101 6.09725C1.53318 5.85525 1.7556 5.67925 2.02264 5.64259L6.06085 5.09059L7.86497 1.67325C8.10439 1.21992 8.89489 1.21992 9.13431 1.67325L10.9384 5.09059L14.9766 5.64259C15.2437 5.67925 15.4661 5.85525 15.5483 6.09725C15.6311 6.33925 15.5617 6.60459 15.3669 6.78125L12.4486 9.43792L13.1371 13.1899C13.1824 13.4399 13.0741 13.6926 12.8559 13.8419C12.7333 13.9273 12.5867 13.9699 12.4394 13.9699Z" fill="url(#paint0_linear_1_3082)"/>
<mask id="mask0_1_3082" style="mask-type:luminance" maskUnits="userSpaceOnUse" x="1" y="1" width="15" height="13">
<path id="&#240;&#159;&#142;&#168; Icon &#208;&#161;olor_2" fill-rule="evenodd" clip-rule="evenodd" d="M8.49965 10.6999C8.61228 10.6999 8.7249 10.7252 8.82761 10.7752L11.4973 12.0886L10.9894 9.31725C10.9491 9.09991 11.0263 8.87858 11.1949 8.72458L13.3454 6.76725L10.3682 6.35925C10.138 6.32791 9.93898 6.19258 9.83557 5.99658L8.49965 3.46725L7.16373 5.99658C7.06032 6.19258 6.86127 6.32791 6.63107 6.35925L3.65394 6.76725L5.80444 8.72458C5.97302 8.87858 6.05023 9.09991 6.00986 9.31725L5.50198 12.0886L8.17169 10.7752C8.2744 10.7252 8.38703 10.6999 8.49965 10.6999ZM12.4394 13.9699C12.3268 13.9699 12.2141 13.9453 12.1114 13.8946L8.49964 12.1186L4.88785 13.8946C4.64843 14.0119 4.35943 13.9913 4.14339 13.8419C3.92522 13.6926 3.81685 13.4399 3.86218 13.1899L4.55068 9.43792L1.63235 6.78125C1.43755 6.60459 1.36814 6.33925 1.45101 6.09725C1.53318 5.85525 1.7556 5.67925 2.02264 5.64259L6.06085 5.09059L7.86497 1.67325C8.10439 1.21992 8.89489 1.21992 9.13431 1.67325L10.9384 5.09059L14.9766 5.64259C15.2437 5.67925 15.4661 5.85525 15.5483 6.09725C15.6311 6.33925 15.5617 6.60459 15.3669 6.78125L12.4486 9.43792L13.1371 13.1899C13.1824 13.4399 13.0741 13.6926 12.8559 13.8419C12.7333 13.9273 12.5867 13.9699 12.4394 13.9699Z" fill="white"/>
</mask>
<g mask="url(#mask0_1_3082)">
</g>
</g>
<defs>
<linearGradient id="paint0_linear_1_3082" x1="2.14199" y1="11.0539" x2="15.5371" y2="10.0095" gradientUnits="userSpaceOnUse">
<stop stop-color="#DA7211"/>
<stop offset="1" stop-color="#F2CE28"/>
</linearGradient>
</defs>
</svg>
