<svg width="30" height="29" viewBox="0 0 30 29" fill="none" xmlns="http://www.w3.org/2000/svg">
<path fill-rule="evenodd" clip-rule="evenodd" d="M27.1036 12.4773C27.0946 12.4965 27.0855 12.5157 27.077 12.5353C27.0684 12.5555 27.0617 12.5766 27.055 12.5977C27.044 12.6319 27.0331 12.666 27.0145 12.696C26.9775 12.7552 26.9292 12.8049 26.8807 12.8548C26.8669 12.869 26.8531 12.8833 26.8395 12.8977C26.8244 12.9129 26.811 12.9295 26.7976 12.946C26.779 12.9692 26.7603 12.9923 26.737 13.0113C26.667 13.0666 26.5861 13.105 26.5055 13.1433C26.4997 13.146 26.494 13.1488 26.4883 13.1515C26.4712 13.1595 26.455 13.1695 26.4388 13.1796C26.4158 13.1939 26.3927 13.2082 26.367 13.2168C26.232 13.2651 26.0883 13.2917 25.9395 13.2917C25.872 13.2917 25.802 13.2868 25.7333 13.2748L20.4208 12.4229C19.7395 12.3141 19.2795 11.6918 19.392 11.0333C19.5045 10.376 20.147 9.92525 20.8295 10.04L22.8845 10.3687C21.3283 7.72729 18.357 6.04167 15.087 6.04167C11.3883 6.04167 8.12951 8.11758 6.78326 11.3281C6.58701 11.7994 6.11826 12.0833 5.62451 12.0833C5.46826 12.0833 5.30951 12.0555 5.15576 11.9951C4.51576 11.745 4.20701 11.0405 4.46701 10.4219C6.19701 6.293 10.3658 3.625 15.087 3.625C19.352 3.625 23.2283 5.88458 25.1845 9.4105L25.6458 7.02646C25.7733 6.37154 26.4283 5.93775 27.1045 6.06342C27.7833 6.18546 28.2308 6.81742 28.1033 7.47354L27.167 12.3069C27.155 12.3685 27.1293 12.4229 27.1036 12.4773ZM23.2169 17.6721C23.4756 17.0522 24.2056 16.755 24.8444 17.0051C25.4844 17.2552 25.7931 17.9597 25.5331 18.5784C23.8031 22.7072 19.6344 25.3752 14.9131 25.3752C10.6481 25.3752 6.77187 23.1156 4.81562 19.5897L4.35312 21.9726C4.24187 22.5538 3.71687 22.9586 3.12562 22.9586C3.04937 22.9586 2.97187 22.9513 2.89437 22.9368C2.21562 22.8148 1.76937 22.1828 1.89687 21.5267L2.83312 16.6934C2.84262 16.6459 2.86366 16.6038 2.8848 16.5615C2.89702 16.537 2.90929 16.5124 2.91937 16.4867C2.92925 16.4627 2.93788 16.4377 2.94653 16.4128C2.96523 16.3588 2.98399 16.3046 3.01562 16.2584C3.03406 16.2309 3.05818 16.2089 3.08245 16.1867C3.09765 16.1728 3.11291 16.1589 3.12687 16.1436C3.13787 16.1312 3.14876 16.1188 3.15963 16.1064C3.21912 16.0387 3.27808 15.9715 3.35312 15.9224C3.36048 15.9173 3.36929 15.9142 3.37799 15.9111C3.38553 15.9084 3.39298 15.9058 3.39937 15.9019C3.52062 15.8258 3.65062 15.7666 3.79437 15.7364C3.80312 15.7344 3.81224 15.7349 3.82133 15.7354C3.82911 15.7358 3.83687 15.7363 3.84437 15.7351C3.98187 15.7134 4.12062 15.7001 4.26687 15.7243L9.57937 16.5774C10.2606 16.6849 10.7206 17.3084 10.6081 17.9669C10.5069 18.5578 9.97687 18.9771 9.37562 18.9771C9.30812 18.9771 9.23937 18.9723 9.17062 18.9602L7.11562 18.6315C8.67187 21.2729 11.6431 22.9586 14.9131 22.9586C18.6119 22.9586 21.8706 20.8826 23.2169 17.6721Z" fill="#223345"/>
<mask id="mask0_432_4294" style="mask-type:luminance" maskUnits="userSpaceOnUse" x="1" y="3" width="28" height="23">
<path fill-rule="evenodd" clip-rule="evenodd" d="M27.1036 12.4773C27.0946 12.4965 27.0855 12.5157 27.077 12.5353C27.0684 12.5555 27.0617 12.5766 27.055 12.5977C27.044 12.6319 27.0331 12.666 27.0145 12.696C26.9775 12.7552 26.9292 12.8049 26.8807 12.8548C26.8669 12.869 26.8531 12.8833 26.8395 12.8977C26.8244 12.9129 26.811 12.9295 26.7976 12.946C26.779 12.9692 26.7603 12.9923 26.737 13.0113C26.667 13.0666 26.5861 13.105 26.5055 13.1433C26.4997 13.146 26.494 13.1488 26.4883 13.1515C26.4712 13.1595 26.455 13.1695 26.4388 13.1796C26.4158 13.1939 26.3927 13.2082 26.367 13.2168C26.232 13.2651 26.0883 13.2917 25.9395 13.2917C25.872 13.2917 25.802 13.2868 25.7333 13.2748L20.4208 12.4229C19.7395 12.3141 19.2795 11.6918 19.392 11.0333C19.5045 10.376 20.147 9.92525 20.8295 10.04L22.8845 10.3687C21.3283 7.72729 18.357 6.04167 15.087 6.04167C11.3883 6.04167 8.12951 8.11758 6.78326 11.3281C6.58701 11.7994 6.11826 12.0833 5.62451 12.0833C5.46826 12.0833 5.30951 12.0555 5.15576 11.9951C4.51576 11.745 4.20701 11.0405 4.46701 10.4219C6.19701 6.293 10.3658 3.625 15.087 3.625C19.352 3.625 23.2283 5.88458 25.1845 9.4105L25.6458 7.02646C25.7733 6.37154 26.4283 5.93775 27.1045 6.06342C27.7833 6.18546 28.2308 6.81742 28.1033 7.47354L27.167 12.3069C27.155 12.3685 27.1293 12.4229 27.1036 12.4773ZM23.2169 17.6721C23.4756 17.0522 24.2056 16.755 24.8444 17.0051C25.4844 17.2552 25.7931 17.9597 25.5331 18.5784C23.8031 22.7072 19.6344 25.3752 14.9131 25.3752C10.6481 25.3752 6.77187 23.1156 4.81562 19.5897L4.35312 21.9726C4.24187 22.5538 3.71687 22.9586 3.12562 22.9586C3.04937 22.9586 2.97187 22.9513 2.89437 22.9368C2.21562 22.8148 1.76937 22.1828 1.89687 21.5267L2.83312 16.6934C2.84262 16.6459 2.86366 16.6038 2.8848 16.5615C2.89702 16.537 2.90929 16.5124 2.91937 16.4867C2.92925 16.4627 2.93788 16.4377 2.94653 16.4128C2.96523 16.3588 2.98399 16.3046 3.01562 16.2584C3.03406 16.2309 3.05818 16.2089 3.08245 16.1867C3.09765 16.1728 3.11291 16.1589 3.12687 16.1436C3.13787 16.1312 3.14876 16.1188 3.15963 16.1064C3.21912 16.0387 3.27808 15.9715 3.35312 15.9224C3.36048 15.9173 3.36929 15.9142 3.37799 15.9111C3.38553 15.9084 3.39298 15.9058 3.39937 15.9019C3.52062 15.8258 3.65062 15.7666 3.79437 15.7364C3.80312 15.7344 3.81224 15.7349 3.82133 15.7354C3.82911 15.7358 3.83687 15.7363 3.84437 15.7351C3.98187 15.7134 4.12062 15.7001 4.26687 15.7243L9.57937 16.5774C10.2606 16.6849 10.7206 17.3084 10.6081 17.9669C10.5069 18.5578 9.97687 18.9771 9.37562 18.9771C9.30812 18.9771 9.23937 18.9723 9.17062 18.9602L7.11562 18.6315C8.67187 21.2729 11.6431 22.9586 14.9131 22.9586C18.6119 22.9586 21.8706 20.8826 23.2169 17.6721Z" fill="white"/>
</mask>
<g mask="url(#mask0_432_4294)">
</g>
</svg>
